<svg width="104" height="32" viewBox="0 0 104 32" fill="none" xmlns="http://www.w3.org/2000/svg">
<path d="M47.9515 3.24792H51.0196L52.9697 9.36566H53.0477L54.9718 3.24792H58.0529V12.5977H56.0898V8.90394L56.1158 5.33847H56.0248L53.8017 12.5977H52.2157L49.9926 5.33847H49.8886L49.9276 8.9296V12.5977H47.9515V3.24792Z" fill="#205732"/>
<path d="M62.2391 3.24792H65.0992L68.2583 12.5977H66.1522L65.5152 10.6739H61.823L61.186 12.5977H59.0799L62.2391 3.24792ZM65.0472 9.14763L64.2411 6.76209L63.7081 5.05631H63.6301L63.0971 6.76209L62.2911 9.14763H65.0472Z" fill="#205732"/>
<path d="M69.2957 3.24792H73.9759C76.186 3.24792 77.278 4.20983 77.278 5.92844C77.278 7.04425 76.654 7.91639 75.64 8.16007V8.24985C76.589 8.42941 77.044 9.00655 77.044 10.0582V11.5203C77.044 11.8666 77.044 12.2386 77.213 12.5977H75.1719C75.0549 12.3668 75.0159 11.9821 75.0159 11.5203V10.4045C75.0159 9.60934 74.7169 9.16045 73.5729 9.16045H71.3238V12.5977H69.2957V3.24792ZM73.6769 7.5701C74.7819 7.5701 75.2109 6.99296 75.2109 6.19778C75.2109 5.26152 74.5869 4.9024 73.6769 4.9024H71.3238V7.5701H73.6769Z" fill="#205732"/>
<path d="M78.8251 3.24792H80.8531V7.6727L84.6363 3.24792H87.0544L83.5572 7.13403L87.1064 12.5977H84.7143L82.1662 8.57049L80.8531 10.0198V12.5977H78.8251V3.24792Z" fill="#205732"/>
<path d="M88.3024 3.24792H95.1927V4.95371H90.3305V7.04425H94.5557V8.64744H90.3305V10.8919H95.2187V12.5977H88.3024V3.24792Z" fill="#205732"/>
<path d="M98.6248 4.97936H95.8297V3.24792H103.5V4.97936H100.64V12.5977H98.6248V4.97936Z" fill="#205732"/>
<path d="M48.2531 17.6971H52.0415C54.7066 17.6971 56.147 19.4696 56.147 22.0963C56.147 24.7229 54.6936 26.4851 52.0415 26.4851H48.2531V17.6971ZM51.7346 24.882C53.1647 24.882 54.2021 24.1817 54.2021 22.0604C54.2021 19.939 53.1881 19.2875 51.7346 19.2875H50.159V24.882H51.7346Z" fill="#231F20"/>
<path d="M59.2255 17.6971H61.914L64.8833 26.4851H62.9047L62.3066 24.6768H58.8355L58.2375 26.4851H56.2588L59.2281 17.6971H59.2255ZM61.8646 23.2429L61.108 21.001L60.6062 19.3978H60.5334L60.0316 21.001L59.2749 23.2429H61.8646Z" fill="#231F20"/>
<path d="M66.9374 23.1351L63.6379 17.6971H65.8142L67.8553 21.3011H67.9411L70.0056 17.6971H72.1688L68.8459 23.1351V26.4877H66.94V23.1351H66.9374Z" fill="#231F20"/>
<path d="M72.083 23.725H74.0149C74.0383 24.592 74.5661 25.1589 75.835 25.1589C76.8126 25.1589 77.447 24.8101 77.447 24.1098C77.447 23.2659 76.9816 23.0863 75.3696 22.8196C73.3155 22.5066 72.2651 21.7935 72.2651 20.2647C72.2651 18.6128 73.5859 17.5894 75.7466 17.5894C77.9073 17.5894 79.1449 18.6385 79.1553 20.2057H77.2364C77.2 19.349 76.5266 19.013 75.6842 19.013C74.7924 19.013 74.2437 19.3977 74.2437 20.0262C74.2437 20.8342 74.8548 20.9419 76.394 21.1959C77.8839 21.4242 79.4257 21.8115 79.4257 23.9328C79.4257 25.5129 78.1907 26.5979 75.7596 26.5979C73.3285 26.5979 72.0804 25.4411 72.0804 23.7276L72.083 23.725Z" fill="#231F20"/>
<path d="M0.0394399 5.04603C0.242248 4.6587 0.465857 4.27651 0.746668 3.92766C1.01448 3.57111 1.33689 3.24535 1.69051 2.95806C2.40033 2.38348 3.27916 1.97819 4.2074 1.83967C4.43881 1.79863 4.67282 1.78837 4.90683 1.77555C5.14084 1.77811 5.37485 1.77555 5.60885 1.80889C6.07167 1.86276 6.53189 1.9628 6.96611 2.12697C7.40032 2.28857 7.81634 2.49891 8.20115 2.75028C8.58337 3.00679 8.93959 3.29921 9.262 3.62498C9.57661 3.95588 9.86262 4.31242 10.107 4.69718C10.3436 5.08451 10.5594 5.48467 10.7129 5.90791C10.8039 6.11568 10.8585 6.33371 10.9287 6.54661L11.0093 6.87494C11.0353 6.98524 11.0639 7.09554 11.0795 7.19558L11.3057 8.41656L12.2105 13.3056L12.6629 15.7476L12.7981 16.3247C12.8475 16.5171 12.8761 16.7121 12.9463 16.8993L13.1309 17.4636C13.1621 17.556 13.1907 17.6534 13.2246 17.7458L13.3416 18.0177C13.9474 19.4772 14.8496 20.8213 15.9911 21.932C17.1403 23.0324 18.5132 23.9071 20.003 24.4843C20.185 24.5689 20.38 24.6177 20.5698 24.6818L21.1419 24.8639L21.7269 24.9947L22.0207 25.0614L22.1663 25.0948L22.3145 25.1153L22.9099 25.1948L23.2089 25.2333L23.5105 25.2461L24.1112 25.2743L24.262 25.282H24.418H24.7326H27.2495L28.5079 25.2871H29.1372H29.4518L29.7534 25.2743C31.3577 25.2333 32.9515 24.8716 34.4128 24.2175C37.3223 22.8862 39.678 20.3622 40.6738 17.3379L40.861 16.7736C40.9104 16.5812 40.952 16.3863 40.9988 16.1939C41.043 15.999 41.095 15.8143 41.1314 15.6091L41.2458 14.9986L41.7034 12.554L42.6187 7.66499L42.7331 7.0545C42.7851 6.85442 42.8007 6.6723 42.8267 6.48505C42.8631 6.30036 42.8579 6.11312 42.8605 5.92586C42.8761 5.73861 42.8449 5.55136 42.8293 5.36667C42.7435 4.62279 42.4731 3.90201 42.0545 3.271C41.225 1.99871 39.7794 1.1471 38.2557 1.01628L37.9697 1.00089C37.8735 0.995762 37.7825 0.985505 37.6733 0.98807H37.0441H35.7856H33.2687L28.2349 0.977807L18.1673 0.964985C18.0581 0.96242 17.9697 0.972675 17.8709 0.97524L17.5849 0.99063C17.4887 0.99063 17.3951 1.01629 17.3015 1.02911L17.0181 1.07528C16.8309 1.11376 16.6489 1.17788 16.4643 1.22662C16.2849 1.29331 16.1107 1.3677 15.9339 1.44209C15.2448 1.77298 14.6364 2.26548 14.171 2.86571C13.7056 3.46594 13.3806 4.17134 13.2375 4.91522L13.2063 5.05374L13.1934 5.19481L13.1647 5.47697C13.1491 5.57188 13.1544 5.66423 13.1544 5.75913V6.04386C13.1544 6.13876 13.1725 6.23111 13.1829 6.32602L13.2194 6.60818C13.2454 6.79799 13.2921 7.01089 13.326 7.21097L14.2282 12.0949L14.6806 14.5369C14.756 14.9421 14.8262 15.3603 14.9224 15.7348L14.99 16.0246C15.0004 16.0733 15.0108 16.1221 15.0238 16.1683L15.0706 16.3093L15.2552 16.8737C15.3202 17.0609 15.4086 17.2379 15.484 17.4226L15.601 17.6945C15.6452 17.7843 15.6946 17.8689 15.7414 17.9561C15.8376 18.1305 15.9261 18.3075 16.0275 18.4768L16.3551 18.9745C16.4565 19.1463 16.5917 19.2925 16.7113 19.4516C16.8361 19.608 16.9531 19.7696 17.0935 19.9081L17.5017 20.3442L17.9463 20.7444C18.5548 21.2574 19.21 21.7268 19.9354 22.0731C20.0238 22.1193 20.1122 22.168 20.2032 22.209L20.4814 22.3245C20.6686 22.3963 20.848 22.4861 21.0405 22.5476L21.6151 22.7297C21.7087 22.7631 21.8075 22.7862 21.9063 22.8067L22.2001 22.8734L22.4939 22.9401C22.5901 22.9657 22.6915 22.9709 22.7903 22.9863L23.3883 23.0683L23.9916 23.0966C24.093 23.1017 24.1918 23.1068 24.2932 23.1094H24.6078L27.1247 23.1171H28.3831L29.0124 23.1222C29.2204 23.1222 29.4362 23.1273 29.6338 23.1145L30.237 23.0889C30.4372 23.076 30.6374 23.0401 30.8376 23.017L31.1366 22.9786C31.2354 22.9606 31.3342 22.9375 31.4331 22.9144C31.6281 22.8708 31.8283 22.8324 32.0233 22.7811C32.7981 22.563 33.5469 22.2552 34.2516 21.8704C34.9432 21.4626 35.601 20.9932 36.1834 20.4391C36.3316 20.3032 36.4616 20.1518 36.6021 20.0082L36.8101 19.7902L36.9973 19.5542C37.1195 19.3951 37.2521 19.2464 37.3665 19.0796L37.6993 18.5794C37.7279 18.5384 37.7565 18.4974 37.7825 18.4538L37.8553 18.3229L37.9983 18.0587C38.0945 17.8843 38.1933 17.7099 38.2661 17.5226L38.5053 16.9737L38.6951 16.4068C38.7237 16.3119 38.7627 16.2196 38.7861 16.1221L38.8537 15.8297C38.8979 15.6347 38.9499 15.4449 38.9889 15.2423L39.2204 14.0213L39.6806 11.5819L40.6036 6.70052C40.6374 6.5184 40.8142 6.4004 40.9988 6.43375C41.1808 6.46709 41.303 6.64152 41.2692 6.82108L40.3748 11.7076L39.9276 14.1495L39.704 15.3705C39.665 15.5757 39.6104 15.7861 39.5636 15.9938L39.4908 16.3068C39.4674 16.4119 39.4258 16.512 39.3946 16.6146L39.1944 17.2276L38.9395 17.8202C38.8615 18.0203 38.7549 18.2075 38.6535 18.3973L38.5001 18.682L38.4247 18.8231C38.3961 18.8693 38.3675 18.9129 38.3363 18.9591L37.9827 19.5003C37.8631 19.6799 37.7201 19.8415 37.5901 20.0133L37.3899 20.2673L37.1689 20.5033C37.0181 20.6597 36.8777 20.8239 36.7217 20.9701C36.0976 21.5703 35.393 22.0833 34.6468 22.5245C33.8875 22.9452 33.0815 23.2812 32.2417 23.5224C32.0311 23.5788 31.8179 23.6198 31.6047 23.6686C31.4981 23.6917 31.3914 23.7173 31.2848 23.7378L30.9598 23.7814C30.744 23.8071 30.5282 23.8456 30.3098 23.861L29.6572 23.8917C29.4362 23.9071 29.2308 23.8994 29.0202 23.902H28.3909L27.1325 23.9071L24.6156 23.9148H24.301C24.1944 23.9148 24.0826 23.9071 23.976 23.9046L23.3207 23.8763L22.6707 23.7917C22.5641 23.7763 22.4523 23.7686 22.3457 23.743L22.0259 23.6737L21.7061 23.6044C21.5995 23.5814 21.4929 23.5583 21.3889 23.5224L20.7648 23.3274C20.5568 23.2633 20.3592 23.1684 20.1564 23.0889L19.8548 22.9657C19.756 22.9196 19.6598 22.8683 19.5636 22.8195C18.7732 22.4476 18.0555 21.9423 17.3899 21.3831L16.9037 20.9496L16.4565 20.4776C16.3005 20.3237 16.1731 20.1493 16.0353 19.98C15.9027 19.8081 15.757 19.6465 15.6426 19.4618L15.2838 18.9206C15.172 18.7359 15.0732 18.541 14.9692 18.3511C14.9172 18.2562 14.8652 18.1613 14.8158 18.0639L14.6858 17.7663C14.6026 17.5662 14.5064 17.3713 14.4336 17.1661L14.2282 16.5505L14.1762 16.3965C14.1606 16.3452 14.1502 16.2914 14.1372 16.2401L14.0618 15.9246C13.9526 15.4962 13.8876 15.0961 13.8096 14.6882L13.352 12.2462L12.4367 7.36487C12.4003 7.1571 12.3561 6.96728 12.3249 6.74669L12.2807 6.41323C12.2677 6.30293 12.2469 6.19007 12.2495 6.0772L12.2443 5.74118C12.2443 5.62831 12.2391 5.51545 12.2547 5.40515L12.2885 5.06913L12.3067 4.90239L12.3405 4.73823C12.5095 3.85327 12.8917 3.01192 13.443 2.29883C13.9942 1.58573 14.7144 0.998328 15.536 0.600739C15.7466 0.513526 15.9547 0.423748 16.1679 0.34423C16.3863 0.282668 16.6047 0.210848 16.8257 0.162111L17.1637 0.103112C17.2755 0.087721 17.3873 0.0569418 17.5017 0.0569418L17.8423 0.0364207C17.9541 0.0312905 18.0737 0.0210294 18.1751 0.0235944L28.2427 0.0107682L33.2765 0.00564086H35.7934L37.0519 0.000509591H37.6811C37.7825 -0.0020555 37.8995 0.00563804 38.0139 0.0107682L38.3545 0.0287257C40.1772 0.182631 41.9037 1.19584 42.8995 2.71437C43.4013 3.4685 43.7315 4.33807 43.8381 5.23841C43.8589 5.46414 43.8927 5.68987 43.8797 5.9156C43.8745 6.14133 43.8797 6.36963 43.8407 6.59279C43.8095 6.81595 43.7835 7.04681 43.7341 7.24945L43.6197 7.85993L42.7175 12.7387L42.2677 15.1781L42.1559 15.7886C42.1195 15.9913 42.0623 16.2067 42.0181 16.4145C41.9687 16.6248 41.9219 16.8352 41.8699 17.043L41.667 17.6586C40.5906 20.9521 38.0373 23.7071 34.8678 25.164C33.2765 25.8822 31.5371 26.2824 29.7898 26.3286L29.4622 26.344H29.1476H28.5183H27.2599L24.743 26.3491H24.4284C24.3244 26.3491 24.2178 26.3491 24.106 26.344L23.4507 26.3157L23.1231 26.3004L22.7981 26.2593L22.1481 26.1747L21.9843 26.1541L21.8231 26.1182L21.5033 26.0464L20.8636 25.9028L20.237 25.7078C20.029 25.6411 19.8158 25.5847 19.6182 25.4949C17.9853 24.8665 16.4825 23.9148 15.224 22.7118C13.9734 21.4985 12.9801 20.0313 12.3119 18.4332L12.1819 18.1357C12.1429 18.0356 12.1117 17.9305 12.0753 17.8279L11.8699 17.2122C11.7945 17.0096 11.7581 16.7941 11.7061 16.5838L11.5579 15.9528L11.0977 13.5108L10.1824 8.63203L9.95363 7.41104C9.93543 7.30588 9.91202 7.2161 9.89122 7.12376L9.82362 6.8493C9.76122 6.66974 9.71701 6.48505 9.63901 6.31063C9.50901 5.95408 9.3244 5.62318 9.12939 5.29998C8.92659 4.98191 8.68738 4.68949 8.42997 4.41759C8.16475 4.15082 7.87354 3.91227 7.56153 3.7045C7.24692 3.49929 6.90891 3.33512 6.56309 3.19917C6.21468 3.06322 5.84807 2.98371 5.48145 2.93497C5.29684 2.90932 5.11224 2.90419 4.92763 2.8965C4.74302 2.90419 4.55841 2.90675 4.37381 2.93497C4.00979 2.98627 3.64318 3.06579 3.29997 3.20944C3.21156 3.23765 3.12836 3.28382 3.04516 3.3223C2.96196 3.36334 2.87615 3.39925 2.79555 3.45056L2.55114 3.58906L2.31713 3.7481C1.69831 4.18416 1.18088 4.77413 0.746668 5.4308L0.738868 5.44106C0.616663 5.62574 0.367053 5.67705 0.182446 5.55649C0.00823949 5.44363 -0.0489624 5.22046 0.0446412 5.04091L0.0394399 5.04603Z" fill="#A4CD39"/>
<path d="M34.1346 13.4724C34.1346 13.8854 34.0929 14.2881 34.0123 14.678H31.6905V18.2922C30.9806 18.818 30.1512 19.1951 29.249 19.3772V14.678H19.5636C19.5064 14.2855 19.4778 13.8828 19.4778 13.4724C19.4778 13.062 19.5064 12.6618 19.5636 12.2668C19.6858 11.4152 19.938 10.6072 20.2994 9.8582C20.7102 9.00659 21.2589 8.2345 21.9193 7.57014C21.9609 7.5291 22.0025 7.48806 22.0441 7.44702C22.7175 6.79548 23.5001 6.25425 24.3634 5.84896C25.1226 5.49242 25.9442 5.24361 26.8049 5.12305V7.56758C25.9026 7.7497 25.0732 8.12677 24.3634 8.65261C23.9006 8.99633 23.4897 9.40161 23.1413 9.8582C22.6083 10.5585 22.2261 11.3767 22.0415 12.2668H29.249V5.12305C30.1122 5.24361 30.9312 5.49242 31.6905 5.84896V12.2668H34.0123C34.0929 12.6567 34.1346 13.0594 34.1346 13.4724Z" fill="#205732"/>
<path d="M19.4934 32C20.7987 32 21.8569 30.9561 21.8569 29.6683C21.8569 28.3806 20.7987 27.3367 19.4934 27.3367C18.1881 27.3367 17.1299 28.3806 17.1299 29.6683C17.1299 30.9561 18.1881 32 19.4934 32Z" fill="#A4CD39"/>
<path d="M20.4606 30.6215C20.9947 30.0946 20.9947 29.2403 20.4606 28.7134C19.9265 28.1865 19.0606 28.1865 18.5265 28.7134C17.9924 29.2403 17.9924 30.0946 18.5265 30.6215C19.0606 31.1484 19.9265 31.1484 20.4606 30.6215Z" fill="#205732"/>
<path d="M34.6389 32C35.9443 32 37.0024 30.9561 37.0024 29.6683C37.0024 28.3806 35.9443 27.3367 34.6389 27.3367C33.3336 27.3367 32.2755 28.3806 32.2755 29.6683C32.2755 30.9561 33.3336 32 34.6389 32Z" fill="#A4CD39"/>
<path d="M35.7014 30.5112C36.1769 29.9322 36.0867 29.0826 35.4999 28.6134C34.9131 28.1443 34.0518 28.2333 33.5763 28.8122C33.1007 29.3912 33.1909 30.2408 33.7778 30.7099C34.3646 31.1791 35.2258 31.0901 35.7014 30.5112Z" fill="#205732"/>
</svg>
